# xmcd CD database file
#
# Track frame offsets:
#	150
#	15801
#	34463
#	49780
#	73053
#	87345
#	110001
#	136710
#	151561
#	170992
#	190128
#	211685
#	228160
#	256720
#	287639
#
# Disc length: 3978 seconds
#
# Revision: 2
# Processed by: cddbd v1.5.2PL0 Copyright (c) Steve Scherf et al.
# Submitted via: CDex 1.77
#
DISCID=c00f880f
DTITLE=Ewan Svensson Trio with Linda Pettersson Bratt and Antoine Herve - Sunrise On The Moon
DYEAR=1900
DGENRE=Jazz
TTITLE0=Shy (Late Meeting)
TTITLE1=Busy Me (Tuesday Evening)
TTITLE2=Living In Limbo (In May)
TTITLE3=I'm Here (Boat Trip)
TTITLE4=Absolutely You (April Walk)
TTITLE5=Sunrise On The Moon (Sketch)
TTITLE6=Seasons Of The Heart (Early Meeting)
TTITLE7=Just Who Do You Think You Are (Piece IV)
TTITLE8=No Such Thing (Thanks)
TTITLE9=Optimistic Blues (Altered Blues)
TTITLE10=From Out Of The Shadowns (Changed)
TTITLE11=Starsville (Medium)
TTITLE12=Being Human (Being)
TTITLE13=Something In Return (Summer Song)
TTITLE14=I am Touched (Piece II)
EXTD=
EXTT0=
EXTT1=
EXTT2=
EXTT3=
EXTT4=
EXTT5=
EXTT6=
EXTT7=
EXTT8=
EXTT9=
EXTT10=
EXTT11=
EXTT12=
EXTT13=
EXTT14=
PLAYORDER=
